<svg aria-roledescription="flowchart-v2" role="graphics-document document" viewBox="0 0 2485.7421875 1175.082763671875" style="max-width: 2485.74px; background-color: white;" class="flowchart" xmlns:xlink="http://www.w3.org/1999/xlink" xmlns="http://www.w3.org/2000/svg" width="100%" id="my-svg"><style>#my-svg{font-family:"trebuchet ms",verdana,arial,sans-serif;font-size:16px;fill:#333;}@keyframes edge-animation-frame{from{stroke-dashoffset:0;}}@keyframes dash{to{stroke-dashoffset:0;}}#my-svg .edge-animation-slow{stroke-dasharray:9,5!important;stroke-dashoffset:900;animation:dash 50s linear infinite;stroke-linecap:round;}#my-svg .edge-animation-fast{stroke-dasharray:9,5!important;stroke-dashoffset:900;animation:dash 20s linear infinite;stroke-linecap:round;}#my-svg .error-icon{fill:#552222;}#my-svg .error-text{fill:#552222;stroke:#552222;}#my-svg .edge-thickness-normal{stroke-width:1px;}#my-svg .edge-thickness-thick{stroke-width:3.5px;}#my-svg .edge-pattern-solid{stroke-dasharray:0;}#my-svg .edge-thickness-invisible{stroke-width:0;fill:none;}#my-svg .edge-pattern-dashed{stroke-dasharray:3;}#my-svg .edge-pattern-dotted{stroke-dasharray:2;}#my-svg .marker{fill:#333333;stroke:#333333;}#my-svg .marker.cross{stroke:#333333;}#my-svg svg{font-family:"trebuchet ms",verdana,arial,sans-serif;font-size:16px;}#my-svg p{margin:0;}#my-svg .label{font-family:"trebuchet ms",verdana,arial,sans-serif;color:#333;}#my-svg .cluster-label text{fill:#333;}#my-svg .cluster-label span{color:#333;}#my-svg .cluster-label span p{background-color:transparent;}#my-svg .label text,#my-svg span{fill:#333;color:#333;}#my-svg .node rect,#my-svg .node circle,#my-svg .node ellipse,#my-svg .node polygon,#my-svg .node path{fill:#ECECFF;stroke:#9370DB;stroke-width:1px;}#my-svg .rough-node .label text,#my-svg .node .label text,#my-svg .image-shape .label,#my-svg .icon-shape .label{text-anchor:middle;}#my-svg .node .katex path{fill:#000;stroke:#000;stroke-width:1px;}#my-svg .rough-node .label,#my-svg .node .label,#my-svg .image-shape .label,#my-svg .icon-shape .label{text-align:center;}#my-svg .node.clickable{cursor:pointer;}#my-svg .root .anchor path{fill:#333333!important;stroke-width:0;stroke:#333333;}#my-svg .arrowheadPath{fill:#333333;}#my-svg .edgePath .path{stroke:#333333;stroke-width:2.0px;}#my-svg .flowchart-link{stroke:#333333;fill:none;}#my-svg .edgeLabel{background-color:rgba(232,232,232, 0.8);text-align:center;}#my-svg .edgeLabel p{background-color:rgba(232,232,232, 0.8);}#my-svg .edgeLabel rect{opacity:0.5;background-color:rgba(232,232,232, 0.8);fill:rgba(232,232,232, 0.8);}#my-svg .labelBkg{background-color:rgba(232, 232, 232, 0.5);}#my-svg .cluster rect{fill:#ffffde;stroke:#aaaa33;stroke-width:1px;}#my-svg .cluster text{fill:#333;}#my-svg .cluster span{color:#333;}#my-svg div.mermaidTooltip{position:absolute;text-align:center;max-width:200px;padding:2px;font-family:"trebuchet ms",verdana,arial,sans-serif;font-size:12px;background:hsl(80, 100%, 96.2745098039%);border:1px solid #aaaa33;border-radius:2px;pointer-events:none;z-index:100;}#my-svg .flowchartTitleText{text-anchor:middle;font-size:18px;fill:#333;}#my-svg rect.text{fill:none;stroke-width:0;}#my-svg .icon-shape,#my-svg .image-shape{background-color:rgba(232,232,232, 0.8);text-align:center;}#my-svg .icon-shape p,#my-svg .image-shape p{background-color:rgba(232,232,232, 0.8);padding:2px;}#my-svg .icon-shape rect,#my-svg .image-shape rect{opacity:0.5;background-color:rgba(232,232,232, 0.8);fill:rgba(232,232,232, 0.8);}#my-svg .label-icon{display:inline-block;height:1em;overflow:visible;vertical-align:-0.125em;}#my-svg .node .label-icon path{fill:currentColor;stroke:revert;stroke-width:revert;}#my-svg :root{--mermaid-font-family:"trebuchet ms",verdana,arial,sans-serif;}#my-svg .backend&gt;*{fill:#e6f2ff!important;stroke:#0052cc!important;stroke-width:2px!important;}#my-svg .backend span{fill:#e6f2ff!important;stroke:#0052cc!important;stroke-width:2px!important;}#my-svg .external&gt;*{fill:#fffbe6!important;stroke:#ffab00!important;stroke-width:2px!important;}#my-svg .external span{fill:#fffbe6!important;stroke:#ffab00!important;stroke-width:2px!important;}#my-svg .db&gt;*{fill:#e3fcef!important;stroke:#006644!important;stroke-width:2px!important;}#my-svg .db span{fill:#e3fcef!important;stroke:#006644!important;stroke-width:2px!important;}#my-svg .client&gt;*{fill:#f3e6ff!important;stroke:#5243AA!important;stroke-width:2px!important;}#my-svg .client span{fill:#f3e6ff!important;stroke:#5243AA!important;stroke-width:2px!important;}</style><g><marker orient="auto" markerHeight="8" markerWidth="8" markerUnits="userSpaceOnUse" refY="5" refX="5" viewBox="0 0 10 10" class="marker flowchart-v2" id="my-svg_flowchart-v2-pointEnd"><path style="stroke-width: 1; stroke-dasharray: 1, 0;" class="arrowMarkerPath" d="M 0 0 L 10 5 L 0 10 z"/></marker><marker orient="auto" markerHeight="8" markerWidth="8" markerUnits="userSpaceOnUse" refY="5" refX="4.5" viewBox="0 0 10 10" class="marker flowchart-v2" id="my-svg_flowchart-v2-pointStart"><path style="stroke-width: 1; stroke-dasharray: 1, 0;" class="arrowMarkerPath" d="M 0 5 L 10 10 L 10 0 z"/></marker><marker orient="auto" markerHeight="11" markerWidth="11" markerUnits="userSpaceOnUse" refY="5" refX="11" viewBox="0 0 10 10" class="marker flowchart-v2" id="my-svg_flowchart-v2-circleEnd"><circle style="stroke-width: 1; stroke-dasharray: 1, 0;" class="arrowMarkerPath" r="5" cy="5" cx="5"/></marker><marker orient="auto" markerHeight="11" markerWidth="11" markerUnits="userSpaceOnUse" refY="5" refX="-1" viewBox="0 0 10 10" class="marker flowchart-v2" id="my-svg_flowchart-v2-circleStart"><circle style="stroke-width: 1; stroke-dasharray: 1, 0;" class="arrowMarkerPath" r="5" cy="5" cx="5"/></marker><marker orient="auto" markerHeight="11" markerWidth="11" markerUnits="userSpaceOnUse" refY="5.2" refX="12" viewBox="0 0 11 11" class="marker cross flowchart-v2" id="my-svg_flowchart-v2-crossEnd"><path style="stroke-width: 2; stroke-dasharray: 1, 0;" class="arrowMarkerPath" d="M 1,1 l 9,9 M 10,1 l -9,9"/></marker><marker orient="auto" markerHeight="11" markerWidth="11" markerUnits="userSpaceOnUse" refY="5.2" refX="-1" viewBox="0 0 11 11" class="marker cross flowchart-v2" id="my-svg_flowchart-v2-crossStart"><path style="stroke-width: 2; stroke-dasharray: 1, 0;" class="arrowMarkerPath" d="M 1,1 l 9,9 M 10,1 l -9,9"/></marker><g class="root"><g class="clusters"><g data-look="classic" id="subGraph6" class="cluster"><rect height="296.08280181884766" width="404.921875" y="871" x="8" style=""/><g transform="translate(149.09375, 871)" class="cluster-label"><foreignObject height="24" width="122.734375"><div style="display: table-cell; white-space: nowrap; line-height: 1.5; max-width: 200px; text-align: center;" xmlns="http://www.w3.org/1999/xhtml"><span class="nodeLabel"><p>External Services</p></span></div></foreignObject></g></g><g data-look="classic" id="subGraph5" class="cluster"><rect height="829.0828018188477" width="2044.8203125" y="338" x="432.921875" style=""/><g transform="translate(1355.33203125, 338)" class="cluster-label"><foreignObject height="48" width="200"><div style="display: table; white-space: break-spaces; line-height: 1.5; max-width: 200px; text-align: center; width: 200px;" xmlns="http://www.w3.org/1999/xhtml"><span class="nodeLabel"><p>Lumiere Mentor Comms Backend (Node.js/Express)</p></span></div></foreignObject></g></g><g data-look="classic" id="User/Client" class="cluster"><rect height="208" width="594.3046875" y="8" x="763.43359375" style=""/><g transform="translate(1019.15625, 8)" class="cluster-label"><foreignObject height="24" width="82.859375"><div style="display: table-cell; white-space: nowrap; line-height: 1.5; max-width: 200px; text-align: center;" xmlns="http://www.w3.org/1999/xhtml"><span class="nodeLabel"><p>User/Client</p></span></div></foreignObject></g></g><g data-look="classic" id="subGraph4" class="cluster"><rect height="104" width="688.4609375" y="896" x="919.671875" style=""/><g transform="translate(1196.68359375, 896)" class="cluster-label"><foreignObject height="24" width="134.4375"><div style="display: table-cell; white-space: nowrap; line-height: 1.5; max-width: 200px; text-align: center;" xmlns="http://www.w3.org/1999/xhtml"><span class="nodeLabel"><p>Models (Mongoose)</p></span></div></foreignObject></g></g><g data-look="classic" id="subGraph3" class="cluster"><rect height="509" width="550.86328125" y="491" x="1906.87890625" style=""/><g transform="translate(2126.521484375, 491)" class="cluster-label"><foreignObject height="24" width="111.578125"><div style="display: table-cell; white-space: nowrap; line-height: 1.5; max-width: 200px; text-align: center;" xmlns="http://www.w3.org/1999/xhtml"><span class="nodeLabel"><p>Utils &amp; Services</p></span></div></foreignObject></g></g><g data-look="classic" id="Controllers" class="cluster"><rect height="104" width="1176.86328125" y="669" x="706.49609375" style=""/><g transform="translate(1255.474609375, 669)" class="cluster-label"><foreignObject height="24" width="78.90625"><div style="display: table-cell; white-space: nowrap; line-height: 1.5; max-width: 200px; text-align: center;" xmlns="http://www.w3.org/1999/xhtml"><span class="nodeLabel"><p>Controllers</p></span></div></foreignObject></g></g><g data-look="classic" id="Middleware" class="cluster"><rect height="104" width="457.359375" y="491" x="860.37890625" style=""/><g transform="translate(1047.83203125, 491)" class="cluster-label"><foreignObject height="24" width="82.453125"><div style="display: table-cell; white-space: nowrap; line-height: 1.5; max-width: 200px; text-align: center;" xmlns="http://www.w3.org/1999/xhtml"><span class="nodeLabel"><p>Middleware</p></span></div></foreignObject></g></g></g><g class="edgePaths"><path marker-end="url(#my-svg_flowchart-v2-pointEnd)" style="" class="edge-thickness-normal edge-pattern-solid edge-thickness-normal edge-pattern-solid flowchart-link" id="L_User_Browser_0" d="M981.902,87L981.902,91.167C981.902,95.333,981.902,103.667,981.902,111.333C981.902,119,981.902,126,981.902,129.5L981.902,133"/><path marker-end="url(#my-svg_flowchart-v2-pointEnd)" style="" class="edge-thickness-normal edge-pattern-solid edge-thickness-normal edge-pattern-solid flowchart-link" id="L_Routes_MW_Auth_0" d="M916.391,417L927.934,423.167C939.476,429.333,962.56,441.667,974.102,454C985.645,466.333,985.645,478.667,985.645,488.333C985.645,498,985.645,505,985.645,508.5L985.645,512"/><path marker-end="url(#my-svg_flowchart-v2-pointEnd)" style="" class="edge-thickness-normal edge-pattern-solid edge-thickness-normal edge-pattern-solid flowchart-link" id="L_MW_Auth_C_Auth_0" d="M985.645,570L985.645,574.167C985.645,578.333,985.645,586.667,985.645,597C985.645,607.333,985.645,619.667,985.645,632C985.645,644.333,985.645,656.667,990.429,666.588C995.214,676.51,1004.783,684.02,1009.568,687.775L1014.353,691.53"/><path marker-end="url(#my-svg_flowchart-v2-pointEnd)" style="" class="edge-thickness-normal edge-pattern-solid edge-thickness-normal edge-pattern-solid flowchart-link" id="L_Routes_MW_Auth_2" d="M919.629,399.033L974.167,408.194C1028.704,417.355,1137.78,435.678,1192.318,451.005C1246.855,466.333,1246.855,478.667,1219.018,490.375C1191.181,502.083,1135.507,513.166,1107.67,518.708L1079.833,524.25"/><path marker-end="url(#my-svg_flowchart-v2-pointEnd)" style="" class="edge-thickness-normal edge-pattern-solid edge-thickness-normal edge-pattern-solid flowchart-link" id="L_MW_Auth_C_Email_0" d="M1075.91,560.004L1106.874,565.836C1137.837,571.669,1199.764,583.335,1240.91,595.334C1282.056,607.333,1302.421,619.667,1312.603,632C1322.785,644.333,1322.785,656.667,1322.785,666.333C1322.785,676,1322.785,683,1322.785,686.5L1322.785,690"/><path marker-end="url(#my-svg_flowchart-v2-pointEnd)" style="" class="edge-thickness-normal edge-pattern-solid edge-thickness-normal edge-pattern-solid flowchart-link" id="L_Routes_C_Webhook_0" d="M919.629,394.052L1052.219,404.043C1184.81,414.035,1449.991,434.017,1582.581,450.175C1715.172,466.333,1715.172,478.667,1715.172,493.5C1715.172,508.333,1715.172,525.667,1715.172,543C1715.172,560.333,1715.172,577.667,1715.172,592.5C1715.172,607.333,1715.172,619.667,1715.172,632C1715.172,644.333,1715.172,656.667,1715.172,666.333C1715.172,676,1715.172,683,1715.172,686.5L1715.172,690"/><path marker-end="url(#my-svg_flowchart-v2-pointEnd)" style="" class="edge-thickness-normal edge-pattern-solid edge-thickness-normal edge-pattern-solid flowchart-link" id="L_C_Auth_Utils_JWT_0" d="M1144.395,727.728L1248.119,735.274C1351.844,742.819,1559.293,757.909,1719.62,773.621C1879.948,789.333,1993.154,805.667,2049.757,822C2106.359,838.333,2106.359,854.667,2106.359,867C2106.359,879.333,2106.359,887.667,2106.359,895.333C2106.359,903,2106.359,910,2106.359,913.5L2106.359,917"/><path marker-end="url(#my-svg_flowchart-v2-pointEnd)" style="" class="edge-thickness-normal edge-pattern-solid edge-thickness-normal edge-pattern-solid flowchart-link" id="L_C_Auth_M_User_0" d="M1020.748,748L1015.941,752.167C1011.133,756.333,1001.518,764.667,996.71,777C991.902,789.333,991.902,805.667,991.902,822C991.902,838.333,991.902,854.667,991.902,867C991.902,879.333,991.902,887.667,996.206,895.563C1000.51,903.46,1009.118,910.92,1013.422,914.65L1017.726,918.38"/><path marker-end="url(#my-svg_flowchart-v2-pointEnd)" style="" class="edge-thickness-normal edge-pattern-solid edge-thickness-normal edge-pattern-solid flowchart-link" id="L_C_Email_Utils_Encrypt_0" d="M1419.004,731.784L1480.294,738.653C1541.583,745.523,1664.163,759.261,1798.712,774.297C1933.262,789.333,2079.781,805.667,2153.041,822C2226.301,838.333,2226.301,854.667,2226.301,867C2226.301,879.333,2226.301,887.667,2233.718,895.692C2241.134,903.718,2255.968,911.436,2263.384,915.295L2270.801,919.154"/><path marker-end="url(#my-svg_flowchart-v2-pointEnd)" style="" class="edge-thickness-normal edge-pattern-solid edge-thickness-normal edge-pattern-solid flowchart-link" id="L_C_Email_M_Email_0" d="M1306.415,748L1303.889,752.167C1301.363,756.333,1296.31,764.667,1293.784,777C1291.258,789.333,1291.258,805.667,1291.258,822C1291.258,838.333,1291.258,854.667,1291.258,867C1291.258,879.333,1291.258,887.667,1291.933,895.345C1292.609,903.024,1293.959,910.048,1294.635,913.56L1295.31,917.072"/><path marker-end="url(#my-svg_flowchart-v2-pointEnd)" style="" class="edge-thickness-normal edge-pattern-solid edge-thickness-normal edge-pattern-solid flowchart-link" id="L_C_Webhook_Utils_Encrypt_0" d="M1765.864,748L1773.687,752.167C1781.509,756.333,1797.155,764.667,1899.843,777C2002.531,789.333,2192.262,805.667,2287.127,822C2381.992,838.333,2381.992,854.667,2381.992,867C2381.992,879.333,2381.992,887.667,2378.013,895.545C2374.033,903.424,2366.074,910.848,2362.094,914.56L2358.114,918.272"/><path marker-end="url(#my-svg_flowchart-v2-pointEnd)" style="" class="edge-thickness-normal edge-pattern-solid edge-thickness-normal edge-pattern-solid flowchart-link" id="L_C_Webhook_M_Email_0" d="M1607.031,741.79L1579.975,746.992C1552.919,752.194,1498.807,762.597,1471.751,775.965C1444.695,789.333,1444.695,805.667,1444.695,822C1444.695,838.333,1444.695,854.667,1444.695,867C1444.695,879.333,1444.695,887.667,1433.637,895.842C1422.579,904.018,1400.463,912.036,1389.405,916.044L1378.346,920.053"/><path marker-end="url(#my-svg_flowchart-v2-pointEnd)" style="" class="edge-thickness-normal edge-pattern-solid edge-thickness-normal edge-pattern-solid flowchart-link" id="L_C_Webhook_Airtable_0" d="M1692.575,748L1689.088,752.167C1685.601,756.333,1678.627,764.667,1675.139,777C1671.652,789.333,1671.652,805.667,1671.652,822C1671.652,838.333,1671.652,854.667,1671.652,867C1671.652,879.333,1671.652,887.667,1674.712,895.489C1677.771,903.311,1683.889,910.622,1686.949,914.277L1690.008,917.933"/><path marker-end="url(#my-svg_flowchart-v2-pointEnd)" style="" class="edge-thickness-normal edge-pattern-solid edge-thickness-normal edge-pattern-solid flowchart-link" id="L_Utils_Cron_C_Email_0" d="M2011.409,570L2006.564,574.167C2001.718,578.333,1992.027,586.667,1987.182,597C1982.336,607.333,1982.336,619.667,1982.336,632C1982.336,644.333,1982.336,656.667,1889.112,670.183C1795.888,683.7,1609.44,698.4,1516.216,705.75L1422.992,713.1"/><path marker-end="url(#my-svg_flowchart-v2-pointEnd)" style="" class="edge-thickness-normal edge-pattern-solid edge-thickness-normal edge-pattern-solid flowchart-link" id="L_Utils_Cron_Airtable_0" d="M2027.976,570L2025.687,574.167C2023.398,578.333,2018.82,586.667,2016.531,597C2014.242,607.333,2014.242,619.667,2014.242,632C2014.242,644.333,2014.242,656.667,2014.242,671.5C2014.242,686.333,2014.242,703.667,2014.242,721C2014.242,738.333,2014.242,755.667,2014.242,772.5C2014.242,789.333,2014.242,805.667,2014.242,822C2014.242,838.333,2014.242,854.667,2014.242,867C2014.242,879.333,2014.242,887.667,1977.06,898.298C1939.879,908.93,1865.515,921.859,1828.334,928.324L1791.152,934.789"/><path marker-end="url(#my-svg_flowchart-v2-pointEnd)" style="" class="edge-thickness-normal edge-pattern-solid edge-thickness-normal edge-pattern-solid flowchart-link" id="L_M_User_DB_0" d="M1051.902,975L1051.902,979.167C1051.902,983.333,1051.902,991.667,1051.902,1002C1051.902,1012.333,1051.902,1024.667,1075.677,1039.915C1099.452,1055.164,1147.002,1073.328,1170.777,1082.41L1194.552,1091.492"/><path marker-end="url(#my-svg_flowchart-v2-pointEnd)" style="" class="edge-thickness-normal edge-pattern-solid edge-thickness-normal edge-pattern-solid flowchart-link" id="L_M_Email_DB_0" d="M1301.258,975L1301.258,979.167C1301.258,983.333,1301.258,991.667,1301.258,1002C1301.258,1012.333,1301.258,1024.667,1296.177,1037.063C1291.097,1049.459,1280.936,1061.918,1275.855,1068.147L1270.775,1074.377"/><path marker-end="url(#my-svg_flowchart-v2-pointEnd)" style="" class="edge-thickness-normal edge-pattern-solid edge-thickness-normal edge-pattern-solid flowchart-link" id="L_M_Token_DB_0" d="M1498.859,975L1498.859,979.167C1498.859,983.333,1498.859,991.667,1498.859,1002C1498.859,1012.333,1498.859,1024.667,1462.603,1040.703C1426.346,1056.738,1353.833,1076.477,1317.577,1086.346L1281.321,1096.215"/><path marker-end="url(#my-svg_flowchart-v2-pointEnd)" style="" class="edge-thickness-normal edge-pattern-solid edge-thickness-normal edge-pattern-solid flowchart-link" id="L_Browser_Routes_0" d="M910.285,191L899.233,195.167C888.181,199.333,866.077,207.667,855.025,222C843.973,236.333,843.973,256.667,843.973,277C843.973,297.333,843.973,317.667,845.468,331.386C846.962,345.104,849.952,352.209,851.447,355.761L852.942,359.313"/><path marker-end="url(#my-svg_flowchart-v2-pointEnd)" style="" class="edge-thickness-normal edge-pattern-solid edge-thickness-normal edge-pattern-solid flowchart-link" id="L_C_Auth_Nylas_0" d="M959.41,739.381L931.215,744.984C903.021,750.587,846.632,761.794,797.427,775.564C748.223,789.333,706.203,805.667,685.193,822C664.184,838.333,664.184,854.667,664.184,867C664.184,879.333,664.184,887.667,599.891,899.231C535.598,910.794,407.012,925.589,342.72,932.986L278.427,940.383"/><path marker-end="url(#my-svg_flowchart-v2-pointEnd)" style="" class="edge-thickness-normal edge-pattern-solid edge-thickness-normal edge-pattern-solid flowchart-link" id="L_Nylas_IdP_0" d="M166.656,975L159.623,979.167C152.591,983.333,138.526,991.667,131.493,1002C124.461,1012.333,124.461,1024.667,133.011,1037.754C141.561,1050.842,158.661,1064.683,167.211,1071.604L175.761,1078.525"/><path marker-end="url(#my-svg_flowchart-v2-pointEnd)" style="" class="edge-thickness-normal edge-pattern-solid edge-thickness-normal edge-pattern-solid flowchart-link" id="L_IdP_Nylas_0" d="M245.583,1081.041L254.651,1073.701C263.719,1066.361,281.856,1051.68,290.924,1038.174C299.992,1024.667,299.992,1012.333,293.533,1002.34C287.074,992.346,274.156,984.693,267.697,980.866L261.239,977.039"/><path marker-end="url(#my-svg_flowchart-v2-pointEnd)" style="" class="edge-thickness-normal edge-pattern-solid edge-thickness-normal edge-pattern-solid flowchart-link" id="L_Nylas_Routes_0" d="M274.453,942.343L359.408,934.619C444.363,926.895,614.273,911.448,699.229,899.557C784.184,887.667,784.184,879.333,784.184,867C784.184,854.667,784.184,838.333,739.822,822C695.46,805.667,606.736,789.333,562.374,772.5C518.012,755.667,518.012,738.333,518.012,721C518.012,703.667,518.012,686.333,518.012,671.5C518.012,656.667,518.012,644.333,518.012,632C518.012,619.667,518.012,607.333,518.012,592.5C518.012,577.667,518.012,560.333,518.012,543C518.012,525.667,518.012,508.333,518.012,493.5C518.012,478.667,518.012,466.333,566.368,451.27C614.724,436.206,711.436,418.412,759.792,409.515L808.148,400.618"/><path marker-end="url(#my-svg_flowchart-v2-pointEnd)" style="" class="edge-thickness-normal edge-pattern-solid edge-thickness-normal edge-pattern-solid flowchart-link" id="L_C_Auth_M_User_2" d="M1083.056,748L1087.864,752.167C1092.672,756.333,1102.287,764.667,1107.095,777C1111.902,789.333,1111.902,805.667,1111.902,822C1111.902,838.333,1111.902,854.667,1111.902,867C1111.902,879.333,1111.902,887.667,1107.598,895.563C1103.295,903.46,1094.687,910.92,1090.383,914.65L1086.079,918.38"/><path marker-end="url(#my-svg_flowchart-v2-pointEnd)" style="" class="edge-thickness-normal edge-pattern-solid edge-thickness-normal edge-pattern-solid flowchart-link" id="L_C_Auth_Browser_0" d="M1120.421,694L1130.994,689.833C1141.568,685.667,1162.716,677.333,1173.289,667C1183.863,656.667,1183.863,644.333,1209.509,632C1235.155,619.667,1286.447,607.333,1312.092,592.5C1337.738,577.667,1337.738,560.333,1337.738,543C1337.738,525.667,1337.738,508.333,1337.738,493.5C1337.738,478.667,1337.738,466.333,1337.738,449.5C1337.738,432.667,1337.738,411.333,1337.738,392C1337.738,372.667,1337.738,355.333,1337.738,336.5C1337.738,317.667,1337.738,297.333,1337.738,277C1337.738,256.667,1337.738,236.333,1293.438,219.693C1249.138,203.052,1160.538,190.105,1116.238,183.631L1071.938,177.157"/><path marker-end="url(#my-svg_flowchart-v2-pointEnd)" style="" class="edge-thickness-normal edge-pattern-solid edge-thickness-normal edge-pattern-solid flowchart-link" id="L_Browser_Routes_2" d="M1067.98,182.98L1092.94,188.483C1117.9,193.986,1167.819,204.993,1192.779,220.663C1217.738,236.333,1217.738,256.667,1217.738,277C1217.738,297.333,1217.738,317.667,1168.713,335.078C1119.687,352.49,1021.637,366.979,972.611,374.224L923.586,381.469"/><path marker-end="url(#my-svg_flowchart-v2-pointEnd)" style="" class="edge-thickness-normal edge-pattern-solid edge-thickness-normal edge-pattern-solid flowchart-link" id="L_Nylas_Routes_2" d="M274.453,943.021L372.396,935.184C470.339,927.347,666.224,911.674,764.167,899.67C862.109,887.667,862.109,879.333,862.109,867C862.109,854.667,862.109,838.333,827.402,822C792.694,805.667,723.279,789.333,688.571,772.5C653.863,755.667,653.863,738.333,653.863,721C653.863,703.667,653.863,686.333,653.863,671.5C653.863,656.667,653.863,644.333,653.863,632C653.863,619.667,653.863,607.333,653.863,592.5C653.863,577.667,653.863,560.333,653.863,543C653.863,525.667,653.863,508.333,653.863,493.5C653.863,478.667,653.863,466.333,679.595,452.398C705.326,438.463,756.79,422.927,782.521,415.158L808.253,407.39"/><path marker-end="url(#my-svg_flowchart-v2-pointEnd)" style="" class="edge-thickness-normal edge-pattern-solid edge-thickness-normal edge-pattern-solid flowchart-link" id="L_C_Webhook_Airtable_2" d="M1731.564,748L1734.094,752.167C1736.623,756.333,1741.683,764.667,1744.213,777C1746.742,789.333,1746.742,805.667,1746.742,822C1746.742,838.333,1746.742,854.667,1746.742,867C1746.742,879.333,1746.742,887.667,1744.558,895.43C1742.375,903.194,1738.007,910.387,1735.824,913.984L1733.64,917.581"/><path marker-end="url(#my-svg_flowchart-v2-pointEnd)" style="" class="edge-thickness-normal edge-pattern-solid edge-thickness-normal edge-pattern-solid flowchart-link" id="L_Utils_Cron_Airtable_2" d="M2065.421,570L2068.911,574.167C2072.401,578.333,2079.38,586.667,2082.87,597C2086.359,607.333,2086.359,619.667,2086.359,632C2086.359,644.333,2086.359,656.667,2086.359,671.5C2086.359,686.333,2086.359,703.667,2086.359,721C2086.359,738.333,2086.359,755.667,2086.359,772.5C2086.359,789.333,2086.359,805.667,2086.359,822C2086.359,838.333,2086.359,854.667,2086.359,867C2086.359,879.333,2086.359,887.667,2037.162,898.726C1987.964,909.784,1889.568,923.569,1840.37,930.461L1791.172,937.353"/></g><g class="edgeLabels"><g class="edgeLabel"><g transform="translate(0, 0)" class="label"><foreignObject height="0" width="0"><div style="display: table-cell; white-space: nowrap; line-height: 1.5; max-width: 200px; text-align: center;" class="labelBkg" xmlns="http://www.w3.org/1999/xhtml"><span class="edgeLabel"></span></div></foreignObject></g></g><g class="edgeLabel"><g transform="translate(0, 0)" class="label"><foreignObject height="0" width="0"><div style="display: table-cell; white-space: nowrap; line-height: 1.5; max-width: 200px; text-align: center;" class="labelBkg" xmlns="http://www.w3.org/1999/xhtml"><span class="edgeLabel"></span></div></foreignObject></g></g><g class="edgeLabel"><g transform="translate(0, 0)" class="label"><foreignObject height="0" width="0"><div style="display: table-cell; white-space: nowrap; line-height: 1.5; max-width: 200px; text-align: center;" class="labelBkg" xmlns="http://www.w3.org/1999/xhtml"><span class="edgeLabel"></span></div></foreignObject></g></g><g class="edgeLabel"><g transform="translate(0, 0)" class="label"><foreignObject height="0" width="0"><div style="display: table-cell; white-space: nowrap; line-height: 1.5; max-width: 200px; text-align: center;" class="labelBkg" xmlns="http://www.w3.org/1999/xhtml"><span class="edgeLabel"></span></div></foreignObject></g></g><g class="edgeLabel"><g transform="translate(0, 0)" class="label"><foreignObject height="0" width="0"><div style="display: table-cell; white-space: nowrap; line-height: 1.5; max-width: 200px; text-align: center;" class="labelBkg" xmlns="http://www.w3.org/1999/xhtml"><span class="edgeLabel"></span></div></foreignObject></g></g><g class="edgeLabel"><g transform="translate(0, 0)" class="label"><foreignObject height="0" width="0"><div style="display: table-cell; white-space: nowrap; line-height: 1.5; max-width: 200px; text-align: center;" class="labelBkg" xmlns="http://www.w3.org/1999/xhtml"><span class="edgeLabel"></span></div></foreignObject></g></g><g class="edgeLabel"><g transform="translate(0, 0)" class="label"><foreignObject height="0" width="0"><div style="display: table-cell; white-space: nowrap; line-height: 1.5; max-width: 200px; text-align: center;" class="labelBkg" xmlns="http://www.w3.org/1999/xhtml"><span class="edgeLabel"></span></div></foreignObject></g></g><g class="edgeLabel"><g transform="translate(0, 0)" class="label"><foreignObject height="0" width="0"><div style="display: table-cell; white-space: nowrap; line-height: 1.5; max-width: 200px; text-align: center;" class="labelBkg" xmlns="http://www.w3.org/1999/xhtml"><span class="edgeLabel"></span></div></foreignObject></g></g><g class="edgeLabel"><g transform="translate(0, 0)" class="label"><foreignObject height="0" width="0"><div style="display: table-cell; white-space: nowrap; line-height: 1.5; max-width: 200px; text-align: center;" class="labelBkg" xmlns="http://www.w3.org/1999/xhtml"><span class="edgeLabel"></span></div></foreignObject></g></g><g class="edgeLabel"><g transform="translate(0, 0)" class="label"><foreignObject height="0" width="0"><div style="display: table-cell; white-space: nowrap; line-height: 1.5; max-width: 200px; text-align: center;" class="labelBkg" xmlns="http://www.w3.org/1999/xhtml"><span class="edgeLabel"></span></div></foreignObject></g></g><g class="edgeLabel"><g transform="translate(0, 0)" class="label"><foreignObject height="0" width="0"><div style="display: table-cell; white-space: nowrap; line-height: 1.5; max-width: 200px; text-align: center;" class="labelBkg" xmlns="http://www.w3.org/1999/xhtml"><span class="edgeLabel"></span></div></foreignObject></g></g><g class="edgeLabel"><g transform="translate(0, 0)" class="label"><foreignObject height="0" width="0"><div style="display: table-cell; white-space: nowrap; line-height: 1.5; max-width: 200px; text-align: center;" class="labelBkg" xmlns="http://www.w3.org/1999/xhtml"><span class="edgeLabel"></span></div></foreignObject></g></g><g class="edgeLabel"><g transform="translate(0, 0)" class="label"><foreignObject height="0" width="0"><div style="display: table-cell; white-space: nowrap; line-height: 1.5; max-width: 200px; text-align: center;" class="labelBkg" xmlns="http://www.w3.org/1999/xhtml"><span class="edgeLabel"></span></div></foreignObject></g></g><g class="edgeLabel"><g transform="translate(0, 0)" class="label"><foreignObject height="0" width="0"><div style="display: table-cell; white-space: nowrap; line-height: 1.5; max-width: 200px; text-align: center;" class="labelBkg" xmlns="http://www.w3.org/1999/xhtml"><span class="edgeLabel"></span></div></foreignObject></g></g><g class="edgeLabel"><g transform="translate(0, 0)" class="label"><foreignObject height="0" width="0"><div style="display: table-cell; white-space: nowrap; line-height: 1.5; max-width: 200px; text-align: center;" class="labelBkg" xmlns="http://www.w3.org/1999/xhtml"><span class="edgeLabel"></span></div></foreignObject></g></g><g class="edgeLabel"><g transform="translate(0, 0)" class="label"><foreignObject height="0" width="0"><div style="display: table-cell; white-space: nowrap; line-height: 1.5; max-width: 200px; text-align: center;" class="labelBkg" xmlns="http://www.w3.org/1999/xhtml"><span class="edgeLabel"></span></div></foreignObject></g></g><g class="edgeLabel"><g transform="translate(0, 0)" class="label"><foreignObject height="0" width="0"><div style="display: table-cell; white-space: nowrap; line-height: 1.5; max-width: 200px; text-align: center;" class="labelBkg" xmlns="http://www.w3.org/1999/xhtml"><span class="edgeLabel"></span></div></foreignObject></g></g><g class="edgeLabel"><g transform="translate(0, 0)" class="label"><foreignObject height="0" width="0"><div style="display: table-cell; white-space: nowrap; line-height: 1.5; max-width: 200px; text-align: center;" class="labelBkg" xmlns="http://www.w3.org/1999/xhtml"><span class="edgeLabel"></span></div></foreignObject></g></g><g transform="translate(843.97265625, 277)" class="edgeLabel"><g transform="translate(-60.3515625, -12)" class="label"><foreignObject height="24" width="120.703125"><div style="display: table-cell; white-space: nowrap; line-height: 1.5; max-width: 200px; text-align: center;" class="labelBkg" xmlns="http://www.w3.org/1999/xhtml"><span class="edgeLabel"><p>1 Initiates OAuth</p></span></div></foreignObject></g></g><g transform="translate(664.18359375, 822)" class="edgeLabel"><g transform="translate(-100, -24)" class="label"><foreignObject height="48" width="200"><div style="display: table; white-space: break-spaces; line-height: 1.5; max-width: 200px; text-align: center; width: 200px;" class="labelBkg" xmlns="http://www.w3.org/1999/xhtml"><span class="edgeLabel"><p>2 Redirects to Nylas for Auth</p></span></div></foreignObject></g></g><g transform="translate(124.4609375, 1037)" class="edgeLabel"><g transform="translate(-81.296875, -12)" class="label"><foreignObject height="24" width="162.59375"><div style="display: table-cell; white-space: nowrap; line-height: 1.5; max-width: 200px; text-align: center;" class="labelBkg" xmlns="http://www.w3.org/1999/xhtml"><span class="edgeLabel"><p>3 Proxies Auth Request</p></span></div></foreignObject></g></g><g transform="translate(299.9921875, 1037)" class="edgeLabel"><g transform="translate(-74.234375, -12)" class="label"><foreignObject height="24" width="148.46875"><div style="display: table-cell; white-space: nowrap; line-height: 1.5; max-width: 200px; text-align: center;" class="labelBkg" xmlns="http://www.w3.org/1999/xhtml"><span class="edgeLabel"><p>4 User Authenticates</p></span></div></foreignObject></g></g><g transform="translate(518.01171875, 632)" class="edgeLabel"><g transform="translate(-61.40625, -12)" class="label"><foreignObject height="24" width="122.8125"><div style="display: table-cell; white-space: nowrap; line-height: 1.5; max-width: 200px; text-align: center;" class="labelBkg" xmlns="http://www.w3.org/1999/xhtml"><span class="edgeLabel"><p>5 OAuth Callback</p></span></div></foreignObject></g></g><g transform="translate(1111.90234375, 822)" class="edgeLabel"><g transform="translate(-100, -24)" class="label"><foreignObject height="48" width="200"><div style="display: table; white-space: break-spaces; line-height: 1.5; max-width: 200px; text-align: center; width: 200px;" class="labelBkg" xmlns="http://www.w3.org/1999/xhtml"><span class="edgeLabel"><p>6 Exchanges Code, Creates User/Session</p></span></div></foreignObject></g></g><g transform="translate(1337.73828125, 454)" class="edgeLabel"><g transform="translate(-70.8828125, -12)" class="label"><foreignObject height="24" width="141.765625"><div style="display: table-cell; white-space: nowrap; line-height: 1.5; max-width: 200px; text-align: center;" class="labelBkg" xmlns="http://www.w3.org/1999/xhtml"><span class="edgeLabel"><p>7 Sends JWT Cookie</p></span></div></foreignObject></g></g><g transform="translate(1217.73828125, 277)" class="edgeLabel"><g transform="translate(-100, -36)" class="label"><foreignObject height="72" width="200"><div style="display: table; white-space: break-spaces; line-height: 1.5; max-width: 200px; text-align: center; width: 200px;" class="labelBkg" xmlns="http://www.w3.org/1999/xhtml"><span class="edgeLabel"><p>Authenticated API Requests (e.g., /mentor-emails)</p></span></div></foreignObject></g></g><g transform="translate(653.86328125, 632)" class="edgeLabel"><g transform="translate(-54.4453125, -12)" class="label"><foreignObject height="24" width="108.890625"><div style="display: table-cell; white-space: nowrap; line-height: 1.5; max-width: 200px; text-align: center;" class="labelBkg" xmlns="http://www.w3.org/1999/xhtml"><span class="edgeLabel"><p>Email Webhook</p></span></div></foreignObject></g></g><g transform="translate(1746.7421875, 822)" class="edgeLabel"><g transform="translate(-35.0234375, -12)" class="label"><foreignObject height="24" width="70.046875"><div style="display: table-cell; white-space: nowrap; line-height: 1.5; max-width: 200px; text-align: center;" class="labelBkg" xmlns="http://www.w3.org/1999/xhtml"><span class="edgeLabel"><p>Sync Data</p></span></div></foreignObject></g></g><g transform="translate(2086.359375, 721)" class="edgeLabel"><g transform="translate(-52.1171875, -12)" class="label"><foreignObject height="24" width="104.234375"><div style="display: table-cell; white-space: nowrap; line-height: 1.5; max-width: 200px; text-align: center;" class="labelBkg" xmlns="http://www.w3.org/1999/xhtml"><span class="edgeLabel"><p>Sync Red Flags</p></span></div></foreignObject></g></g></g><g class="nodes"><g transform="translate(981.90234375, 60)" id="flowchart-User-0" class="node default client"><rect height="54" width="150.15625" y="-27" x="-75.078125" style="fill:#f3e6ff !important;stroke:#5243AA !important;stroke-width:2px !important" class="basic label-container"/><g transform="translate(-45.078125, -12)" style="" class="label"><rect/><foreignObject height="24" width="90.15625"><div style="display: table-cell; white-space: nowrap; line-height: 1.5; max-width: 200px; text-align: center;" xmlns="http://www.w3.org/1999/xhtml"><span class="nodeLabel"><p> User/Mentor</p></span></div></foreignObject></g></g><g transform="translate(981.90234375, 164)" id="flowchart-Browser-1" class="node default client"><rect height="54" width="172.15625" y="-27" x="-86.078125" style="fill:#f3e6ff !important;stroke:#5243AA !important;stroke-width:2px !important" class="basic label-container"/><g transform="translate(-56.078125, -12)" style="" class="label"><rect/><foreignObject height="24" width="112.15625"><div style="display: table-cell; white-space: nowrap; line-height: 1.5; max-width: 200px; text-align: center;" xmlns="http://www.w3.org/1999/xhtml"><span class="nodeLabel"><p> Frontend Client</p></span></div></foreignObject></g></g><g transform="translate(865.85546875, 390)" id="flowchart-Routes-2" class="node default backend"><rect height="54" width="107.546875" y="-27" x="-53.7734375" style="fill:#e6f2ff !important;stroke:#0052cc !important;stroke-width:2px !important" class="basic label-container"/><g transform="translate(-23.7734375, -12)" style="" class="label"><rect/><foreignObject height="24" width="47.546875"><div style="display: table-cell; white-space: nowrap; line-height: 1.5; max-width: 200px; text-align: center;" xmlns="http://www.w3.org/1999/xhtml"><span class="nodeLabel"><p> Routes</p></span></div></foreignObject></g></g><g transform="translate(985.64453125, 543)" id="flowchart-MW_Auth-3" class="node default backend"><rect height="54" width="180.53125" y="-27" x="-90.265625" style="fill:#e6f2ff !important;stroke:#0052cc !important;stroke-width:2px !important" class="basic label-container"/><g transform="translate(-60.265625, -12)" style="" class="label"><rect/><foreignObject height="24" width="120.53125"><div style="display: table-cell; white-space: nowrap; line-height: 1.5; max-width: 200px; text-align: center;" xmlns="http://www.w3.org/1999/xhtml"><span class="nodeLabel"><p> Auth Middleware</p></span></div></foreignObject></g></g><g transform="translate(1204.32421875, 543)" id="flowchart-MW_Error-4" class="node default backend"><rect height="54" width="156.828125" y="-27" x="-78.4140625" style="fill:#e6f2ff !important;stroke:#0052cc !important;stroke-width:2px !important" class="basic label-container"/><g transform="translate(-48.4140625, -12)" style="" class="label"><rect/><foreignObject height="24" width="96.828125"><div style="display: table-cell; white-space: nowrap; line-height: 1.5; max-width: 200px; text-align: center;" xmlns="http://www.w3.org/1999/xhtml"><span class="nodeLabel"><p> Error Handler</p></span></div></foreignObject></g></g><g transform="translate(1051.90234375, 721)" id="flowchart-C_Auth-5" class="node default backend"><rect height="54" width="184.984375" y="-27" x="-92.4921875" style="fill:#e6f2ff !important;stroke:#0052cc !important;stroke-width:2px !important" class="basic label-container"/><g transform="translate(-62.4921875, -12)" style="" class="label"><rect/><foreignObject height="24" width="124.984375"><div style="display: table-cell; white-space: nowrap; line-height: 1.5; max-width: 200px; text-align: center;" xmlns="http://www.w3.org/1999/xhtml"><span class="nodeLabel"><p> auth.controller.js</p></span></div></foreignObject></g></g><g transform="translate(1322.78515625, 721)" id="flowchart-C_Email-6" class="node default backend"><rect height="54" width="192.4375" y="-27" x="-96.21875" style="fill:#e6f2ff !important;stroke:#0052cc !important;stroke-width:2px !important" class="basic label-container"/><g transform="translate(-66.21875, -12)" style="" class="label"><rect/><foreignObject height="24" width="132.4375"><div style="display: table-cell; white-space: nowrap; line-height: 1.5; max-width: 200px; text-align: center;" xmlns="http://www.w3.org/1999/xhtml"><span class="nodeLabel"><p> email.controller.js</p></span></div></foreignObject></g></g><g transform="translate(1715.171875, 721)" id="flowchart-C_Webhook-7" class="node default backend"><rect height="54" width="216.28125" y="-27" x="-108.140625" style="fill:#e6f2ff !important;stroke:#0052cc !important;stroke-width:2px !important" class="basic label-container"/><g transform="translate(-78.140625, -12)" style="" class="label"><rect/><foreignObject height="24" width="156.28125"><div style="display: table-cell; white-space: nowrap; line-height: 1.5; max-width: 200px; text-align: center;" xmlns="http://www.w3.org/1999/xhtml"><span class="nodeLabel"><p> webhook.controller.js</p></span></div></foreignObject></g></g><g transform="translate(2106.359375, 948)" id="flowchart-Utils_JWT-8" class="node default backend"><rect height="54" width="146.765625" y="-27" x="-73.3828125" style="fill:#e6f2ff !important;stroke:#0052cc !important;stroke-width:2px !important" class="basic label-container"/><g transform="translate(-43.3828125, -12)" style="" class="label"><rect/><foreignObject height="24" width="86.765625"><div style="display: table-cell; white-space: nowrap; line-height: 1.5; max-width: 200px; text-align: center;" xmlns="http://www.w3.org/1999/xhtml"><span class="nodeLabel"><p> JWT Service</p></span></div></foreignObject></g></g><g transform="translate(2326.2421875, 948)" id="flowchart-Utils_Encrypt-9" class="node default backend"><rect height="54" width="193" y="-27" x="-96.5" style="fill:#e6f2ff !important;stroke:#0052cc !important;stroke-width:2px !important" class="basic label-container"/><g transform="translate(-66.5, -12)" style="" class="label"><rect/><foreignObject height="24" width="133"><div style="display: table-cell; white-space: nowrap; line-height: 1.5; max-width: 200px; text-align: center;" xmlns="http://www.w3.org/1999/xhtml"><span class="nodeLabel"><p> Encryption Service</p></span></div></foreignObject></g></g><g transform="translate(2042.80859375, 543)" id="flowchart-Utils_Cron-10" class="node default backend"><rect height="54" width="201.859375" y="-27" x="-100.9296875" style="fill:#e6f2ff !important;stroke:#0052cc !important;stroke-width:2px !important" class="basic label-container"/><g transform="translate(-70.9296875, -12)" style="" class="label"><rect/><foreignObject height="24" width="141.859375"><div style="display: table-cell; white-space: nowrap; line-height: 1.5; max-width: 200px; text-align: center;" xmlns="http://www.w3.org/1999/xhtml"><span class="nodeLabel"><p> Cron Job/Scheduler</p></span></div></foreignObject></g></g><g transform="translate(1051.90234375, 948)" id="flowchart-M_User-11" class="node default backend"><rect height="54" width="138.921875" y="-27" x="-69.4609375" style="fill:#e6f2ff !important;stroke:#0052cc !important;stroke-width:2px !important" class="basic label-container"/><g transform="translate(-39.4609375, -12)" style="" class="label"><rect/><foreignObject height="24" width="78.921875"><div style="display: table-cell; white-space: nowrap; line-height: 1.5; max-width: 200px; text-align: center;" xmlns="http://www.w3.org/1999/xhtml"><span class="nodeLabel"><p> User Model</p></span></div></foreignObject></g></g><g transform="translate(1301.2578125, 948)" id="flowchart-M_Email-12" class="node default backend"><rect height="54" width="146.65625" y="-27" x="-73.328125" style="fill:#e6f2ff !important;stroke:#0052cc !important;stroke-width:2px !important" class="basic label-container"/><g transform="translate(-43.328125, -12)" style="" class="label"><rect/><foreignObject height="24" width="86.65625"><div style="display: table-cell; white-space: nowrap; line-height: 1.5; max-width: 200px; text-align: center;" xmlns="http://www.w3.org/1999/xhtml"><span class="nodeLabel"><p> Email Model</p></span></div></foreignObject></g></g><g transform="translate(1498.859375, 948)" id="flowchart-M_Token-13" class="node default backend"><rect height="54" width="148.546875" y="-27" x="-74.2734375" style="fill:#e6f2ff !important;stroke:#0052cc !important;stroke-width:2px !important" class="basic label-container"/><g transform="translate(-44.2734375, -12)" style="" class="label"><rect/><foreignObject height="24" width="88.546875"><div style="display: table-cell; white-space: nowrap; line-height: 1.5; max-width: 200px; text-align: center;" xmlns="http://www.w3.org/1999/xhtml"><span class="nodeLabel"><p> Token Model</p></span></div></foreignObject></g></g><g transform="translate(1715.171875, 948)" id="flowchart-Airtable-35" class="node default external"><rect height="54" width="144.078125" y="-27" x="-72.0390625" style="fill:#fffbe6 !important;stroke:#ffab00 !important;stroke-width:2px !important" class="basic label-container"/><g transform="translate(-42.0390625, -12)" style="" class="label"><rect/><foreignObject height="24" width="84.078125"><div style="display: table-cell; white-space: nowrap; line-height: 1.5; max-width: 200px; text-align: center;" xmlns="http://www.w3.org/1999/xhtml"><span class="nodeLabel"><p> Airtable API</p></span></div></foreignObject></g></g><g transform="translate(1237.875, 1108.0414009094238)" id="flowchart-DB-41" class="node default db"><path transform="translate(-39.5859375, -34.041402005050884)" style="fill:#e3fcef !important;stroke:#006644 !important;stroke-width:2px !important" class="basic label-container" d="M0,9.69426800336726 a39.5859375,9.69426800336726 0,0,0 79.171875,0 a39.5859375,9.69426800336726 0,0,0 -79.171875,0 l0,48.694268003367256 a39.5859375,9.69426800336726 0,0,0 79.171875,0 l0,-48.694268003367256"/><g transform="translate(-32.0859375, -2)" style="" class="label"><rect/><foreignObject height="24" width="64.171875"><div style="display: table-cell; white-space: nowrap; line-height: 1.5; max-width: 200px; text-align: center;" xmlns="http://www.w3.org/1999/xhtml"><span class="nodeLabel"><p> MongoDB</p></span></div></foreignObject></g></g><g transform="translate(212.2265625, 948)" id="flowchart-Nylas-46" class="node default external"><rect height="54" width="124.453125" y="-27" x="-62.2265625" style="fill:#fffbe6 !important;stroke:#ffab00 !important;stroke-width:2px !important" class="basic label-container"/><g transform="translate(-32.2265625, -12)" style="" class="label"><rect/><foreignObject height="24" width="64.453125"><div style="display: table-cell; white-space: nowrap; line-height: 1.5; max-width: 200px; text-align: center;" xmlns="http://www.w3.org/1999/xhtml"><span class="nodeLabel"><p> Nylas API</p></span></div></foreignObject></g></g><g transform="translate(212.2265625, 1108.0414009094238)" id="flowchart-IdP-48" class="node default external"><rect height="54" width="193.25" y="-27" x="-96.625" style="fill:#fffbe6 !important;stroke:#ffab00 !important;stroke-width:2px !important" class="basic label-container"/><g transform="translate(-66.625, -12)" style="" class="label"><rect/><foreignObject height="24" width="133.25"><div style="display: table-cell; white-space: nowrap; line-height: 1.5; max-width: 200px; text-align: center;" xmlns="http://www.w3.org/1999/xhtml"><span class="nodeLabel"><p> /  Identity Provider</p></span></div></foreignObject></g></g></g></g></g></svg>